<mxfile host="app.diagrams.net" modified="2023-12-02T15:09:44.781Z" agent="Mozilla/5.0 (X11; Ubuntu; Linux x86_64; rv:120.0) Gecko/20100101 Firefox/120.0" etag="t8WzafisFMP2BlC6QKCM" version="22.1.5" type="device">
  <diagram name="Page-1" id="TKn5FPeN9TJqUHvjzyVv">
    <mxGraphModel dx="2462" dy="852" grid="1" gridSize="10" guides="1" tooltips="1" connect="1" arrows="1" fold="1" page="1" pageScale="1" pageWidth="850" pageHeight="1100" math="0" shadow="0">
      <root>
        <mxCell id="0" />
        <mxCell id="1" parent="0" />
        <mxCell id="sq1OUhgkUs9e2usffh2P-43" value="" style="rounded=0;whiteSpace=wrap;html=1;fillColor=none;strokeWidth=2;" vertex="1" parent="1">
          <mxGeometry x="50" y="87" width="1000" height="533" as="geometry" />
        </mxCell>
        <mxCell id="sq1OUhgkUs9e2usffh2P-42" value="" style="shape=image;verticalLabelPosition=bottom;labelBackgroundColor=default;verticalAlign=top;aspect=fixed;imageAspect=0;image=https://tcude.net/content/images/2022/01/MainImage-2.jpeg;" vertex="1" parent="1">
          <mxGeometry x="830" y="91" width="160" height="76.8" as="geometry" />
        </mxCell>
        <mxCell id="sq1OUhgkUs9e2usffh2P-7" value="" style="rounded=0;whiteSpace=wrap;html=1;dashed=1;dashPattern=8 8;fillColor=none;strokeWidth=2;" vertex="1" parent="1">
          <mxGeometry x="290" y="160" width="700" height="310" as="geometry" />
        </mxCell>
        <mxCell id="sq1OUhgkUs9e2usffh2P-37" style="edgeStyle=orthogonalEdgeStyle;rounded=0;orthogonalLoop=1;jettySize=auto;html=1;startArrow=classic;startFill=1;dashed=1;" edge="1" parent="1" source="sq1OUhgkUs9e2usffh2P-8" target="sq1OUhgkUs9e2usffh2P-23">
          <mxGeometry relative="1" as="geometry" />
        </mxCell>
        <mxCell id="sq1OUhgkUs9e2usffh2P-8" value="Project 1" style="rounded=0;whiteSpace=wrap;html=1;fontSize=16;" vertex="1" parent="1">
          <mxGeometry x="550" y="206.37" width="120" height="60" as="geometry" />
        </mxCell>
        <mxCell id="sq1OUhgkUs9e2usffh2P-36" style="edgeStyle=orthogonalEdgeStyle;rounded=0;orthogonalLoop=1;jettySize=auto;html=1;entryX=0.5;entryY=0;entryDx=0;entryDy=0;startArrow=classic;startFill=1;dashed=1;" edge="1" parent="1" source="sq1OUhgkUs9e2usffh2P-9" target="sq1OUhgkUs9e2usffh2P-20">
          <mxGeometry relative="1" as="geometry" />
        </mxCell>
        <mxCell id="sq1OUhgkUs9e2usffh2P-9" value="Project 2" style="rounded=0;whiteSpace=wrap;html=1;fontSize=16;" vertex="1" parent="1">
          <mxGeometry x="550" y="284.62" width="120" height="60" as="geometry" />
        </mxCell>
        <mxCell id="sq1OUhgkUs9e2usffh2P-10" value="Project 3" style="rounded=0;whiteSpace=wrap;html=1;fontSize=16;" vertex="1" parent="1">
          <mxGeometry x="550" y="363.62" width="120" height="60" as="geometry" />
        </mxCell>
        <mxCell id="sq1OUhgkUs9e2usffh2P-14" value="" style="group" vertex="1" connectable="0" parent="1">
          <mxGeometry x="380" y="498" width="78" height="86" as="geometry" />
        </mxCell>
        <mxCell id="sq1OUhgkUs9e2usffh2P-12" value="" style="image;aspect=fixed;html=1;points=[];align=center;fontSize=12;image=img/lib/azure2/general/Folder_Blank.svg;" vertex="1" parent="sq1OUhgkUs9e2usffh2P-14">
          <mxGeometry x="9" y="30" width="69" height="56.00000000000001" as="geometry" />
        </mxCell>
        <mxCell id="sq1OUhgkUs9e2usffh2P-13" value="dags/" style="text;html=1;strokeColor=none;fillColor=none;align=center;verticalAlign=middle;whiteSpace=wrap;rounded=0;fontSize=17;" vertex="1" parent="sq1OUhgkUs9e2usffh2P-14">
          <mxGeometry width="60" height="30" as="geometry" />
        </mxCell>
        <mxCell id="sq1OUhgkUs9e2usffh2P-15" value="" style="group" vertex="1" connectable="0" parent="1">
          <mxGeometry x="660" y="498" width="80" height="86" as="geometry" />
        </mxCell>
        <mxCell id="sq1OUhgkUs9e2usffh2P-16" value="" style="image;aspect=fixed;html=1;points=[];align=center;fontSize=12;image=img/lib/azure2/general/Folder_Blank.svg;" vertex="1" parent="sq1OUhgkUs9e2usffh2P-15">
          <mxGeometry x="9" y="30" width="69" height="56.00000000000001" as="geometry" />
        </mxCell>
        <mxCell id="sq1OUhgkUs9e2usffh2P-17" value="project_1/" style="text;html=1;strokeColor=none;fillColor=none;align=center;verticalAlign=middle;whiteSpace=wrap;rounded=0;fontSize=17;" vertex="1" parent="sq1OUhgkUs9e2usffh2P-15">
          <mxGeometry x="9" width="80" height="30" as="geometry" />
        </mxCell>
        <mxCell id="sq1OUhgkUs9e2usffh2P-18" value="" style="group" vertex="1" connectable="0" parent="1">
          <mxGeometry x="780" y="498" width="80" height="86" as="geometry" />
        </mxCell>
        <mxCell id="sq1OUhgkUs9e2usffh2P-19" value="" style="image;aspect=fixed;html=1;points=[];align=center;fontSize=12;image=img/lib/azure2/general/Folder_Blank.svg;" vertex="1" parent="sq1OUhgkUs9e2usffh2P-18">
          <mxGeometry x="9" y="30" width="69" height="56.00000000000001" as="geometry" />
        </mxCell>
        <mxCell id="sq1OUhgkUs9e2usffh2P-20" value="project_2/" style="text;html=1;strokeColor=none;fillColor=none;align=center;verticalAlign=middle;whiteSpace=wrap;rounded=0;fontSize=17;" vertex="1" parent="sq1OUhgkUs9e2usffh2P-18">
          <mxGeometry x="9" width="80" height="30" as="geometry" />
        </mxCell>
        <mxCell id="sq1OUhgkUs9e2usffh2P-21" value="" style="group" vertex="1" connectable="0" parent="1">
          <mxGeometry x="900" y="498" width="80" height="86" as="geometry" />
        </mxCell>
        <mxCell id="sq1OUhgkUs9e2usffh2P-22" value="" style="image;aspect=fixed;html=1;points=[];align=center;fontSize=12;image=img/lib/azure2/general/Folder_Blank.svg;" vertex="1" parent="sq1OUhgkUs9e2usffh2P-21">
          <mxGeometry x="9" y="30" width="69" height="56.00000000000001" as="geometry" />
        </mxCell>
        <mxCell id="sq1OUhgkUs9e2usffh2P-23" value="project_3/" style="text;html=1;strokeColor=none;fillColor=none;align=center;verticalAlign=middle;whiteSpace=wrap;rounded=0;fontSize=17;" vertex="1" parent="sq1OUhgkUs9e2usffh2P-21">
          <mxGeometry x="9" width="80" height="30" as="geometry" />
        </mxCell>
        <mxCell id="sq1OUhgkUs9e2usffh2P-28" value="" style="group" vertex="1" connectable="0" parent="1">
          <mxGeometry x="350" y="385" width="120" height="50" as="geometry" />
        </mxCell>
        <mxCell id="sq1OUhgkUs9e2usffh2P-27" value="" style="rounded=0;whiteSpace=wrap;html=1;" vertex="1" parent="sq1OUhgkUs9e2usffh2P-28">
          <mxGeometry width="120" height="50" as="geometry" />
        </mxCell>
        <mxCell id="sq1OUhgkUs9e2usffh2P-24" value="" style="shape=image;verticalLabelPosition=bottom;labelBackgroundColor=default;verticalAlign=top;aspect=fixed;imageAspect=0;image=https://upload.wikimedia.org/wikipedia/commons/d/de/AirflowLogo.png;labelBorderColor=none;imageBorder=none;perimeterSpacing=0;" vertex="1" parent="sq1OUhgkUs9e2usffh2P-28">
          <mxGeometry x="15.361702127659576" y="5.716666666666678" width="92.04615384615386" height="35.5923076923077" as="geometry" />
        </mxCell>
        <mxCell id="sq1OUhgkUs9e2usffh2P-32" value="" style="group" vertex="1" connectable="0" parent="1">
          <mxGeometry x="350" y="302.75" width="120" height="34.5" as="geometry" />
        </mxCell>
        <mxCell id="sq1OUhgkUs9e2usffh2P-31" value="" style="rounded=0;whiteSpace=wrap;html=1;" vertex="1" parent="sq1OUhgkUs9e2usffh2P-32">
          <mxGeometry width="120" height="34.5" as="geometry" />
        </mxCell>
        <mxCell id="sq1OUhgkUs9e2usffh2P-26" value="" style="shape=image;verticalLabelPosition=bottom;labelBackgroundColor=default;verticalAlign=top;aspect=fixed;imageAspect=0;image=data:image/png,iVBORw0KGgoAAAANSUhEUgAAAccAAABvCAMAAACuGvu3AAAAjVBMVEX///8BpxwAoQAAowAAphVOt1f3/PgApADa790OqSOu3LLG5sni8+QApQ0AnwDt9+6y3LY5skWByYdCtE2Jy46a1KB5x4BrwXLH58rn9en5/fqRz5bW7djL6M6i1qYAmgAorjZzxHq84b9gvWglrTSg1aSOz5RBtExWul9cvGSp2a1mwG4zsEC/4sKFyoqZEyexAAAPjklEQVR4nO2daZuqIBTHR6Bsw/aaMru2TXvf/+NdgVJWdSzqafL/4j7PbdzgJwc454Bfo4pd9RtfpZ4gjOzKW766hJ8hx67g4tUF/BDZxYjWry7fp8guR9B6dfk+RXYxHl5dvI+RTYx4/+rSfY4sYkRo+urSfY4scgSzVxfug2QPIxy+umyfJGsYcf/VRfsoWePoVl9dtI+SLYyg+eqSfZYsYYS9Vxfsw2QHIzq9ulyfJjscYVu5UWlnrcoKRtBR7rP4V457bMoGRnes3OYHgJKjTVnAiOrKXQ7AKTlalQWOarCq6TklR7uygHEu36MGnJKjZT0cI97Jt5hAVHK0rUdjVINVVYdgfBXH6nQ6/YQ36NEcPSVYFWLnhRxdAOG/2ktu/VQ9GCP8kW9Qgc4rOdYjYwBKjr8U3srXP14xvoyjU3JMlQs1Pyr+uAu4/ankaFVFMQL/Byg/emfp6pvkmNwcJ0t/vD2tw9N2t7jMz7X7+D+X4yRQHcvPUUGM8EJ8bfKPI+niS48Dn4tHdbgG0L0tVsAQQgDQ3m8Wrp6nclx5wLs86V6SimFkSRsL0bSiULr2jAedi+MA0LmmfDcXyJfOrWdyvJD6AK9ZmFQII8IMyl4ACSbipSfiX7M5zhCMb0CFblBRt2j5nskR3veod6kQxzijcYu5H6UXsYqFppXN8eCxEzAE69ViNB7vu3UYTf+i67wHR9qLaKIEz1AhjIkHNYxBwpV05bVoITM5DllnisHxzB3aDg6jLgCF8wueyfFESqwJ2j1DBTBC7kmrN9OnvIZ8U83DkY2JEBjphjSzwgtFnsmxRYZl9dfMr36PURzOTFwGUq6rvTy9zODYpmMiXH90lT91vDpdduSZ17P0e45SeJEGpRwgJY+PFC9BBscVab748WOE0g9gEpRWigeRQcQV8beh6iNI59giVtXGEKHkaBQIxEt0AJKSxzsqxgyOA9exs7Cn5Jgf5NwTfwg83UmpHElYAlXSjiiokmMayNSGU9O0xgyOdJQjG+yHqOSYJpgCsu1qXGsZHAPq0bLhYy45pglB4wYO07oWYzrHJeEILRSv5FgU5Anrz0jl2CEcXRvls8BxOn3qevlp22CnhOcoyNFB7kR78Z1rOMFSeww2o2OksX/WV24qx2lzuCBnL4bf2r+3m9/fwrqU1mERYggAXI80PUs1Olw8/qtFrmC6/ZkcLlTLNDqc8yRMDse1C6Lbybu7VTvjtRs9h1uZX88vytEAcqHLEsjmWLB/nI2jMrLQSFSqo67TTuHY3BMnPBWEYKExMGcPwn/x/2qDOoBX5z/CoK+Uv/WPhEuFn/zoCp5pT6/ocCkHrB399O923WXXi28HETclCI7Jc0Dg098Kc3QQUutdkyOQi2Oh8WqrAgQbjsFRvYeR4+wkn60u2WzC+O2aHkIgDuAQkJ+3RUqBhZ+G0RWwHF6/iaZnC68PqYfrZGCOhFAs8m4u5mUoPjg8kVIXY8gurYBsmDFmzB/JI+Nj2hGKNoCchIh5IaaHXgErxEwcezRIhiA9G1JCcC2Xh3IkFT3pQVarKGr48MbTk677GI6QGNYNTX+iCRHwauI8arHPa1Zs+hf2HJDMu+/g6CBHZNPUzf/zcVxgpUwZOpJaQCD0m612uz3bhKR8SJnZGjj2SeVgsB1+k7MDv06rzZVAEo7RFGu29+ifIYDbhT8/+FdDICdAPIhj56uDI0TR7daLTWfZuVzD69E4sLalpYRgO9ocDgNaZrZM8R6ODhKCNLOU1pjFMaBUfhFlXNGRUZ/DtiTNBLnScEfPsUv74xXXw81pBUnbGhKOuMeoueC0ia/T3tGqBWJ04zEc0bFP/gX1TfxWsXQ1OLiQh8SgsrwVMqCTPOKXvoujg9dJtbV1qTV5OV5jsLk3MqOOeLARfmuTQskbhWo50tGY1L21yEAbilds0lZL2znyRWMxIodLnsTHcIz6q+h+W2HcGzCQxDyAET++YrP1yAqZqp12BJFcnEoHh7crxhHlYhxpwMNxQ/1sRtYEqCCIJ0mpGC1HWiuKBabuRCg05yYzaFELUFfFM4smHP4gjoSi/HBjfH2SnlSNtCzuUM8x6gi6C//Q6XQO/qILgd7Txq58s4WhYf6fk+PX4ZoP4KcfxlTBuiUIXxtSa2JehY4jyTjRLH0fYblBUo5IOyWh95Jehke1x7oajGY+a7hSpwjEkKGVhiOC7kWMX8z8OjBSusZ+K8aJY06Ot/wcCC+Zwx3SE2u36IXKjTQcSVRNXd3HGrkYAiUckTKKTY5mY8tYD+IIdMcS+4l1m9mQO6CuyhE6ugTM2dFIEpI1HccsjDny5c6Q3QKC0yHdvO6wYaMl2qSEXB4NR9ocde9KBUktrAlT8hjpVEUw7TY5EsMKB5o/EBdKNEBUqtuUDz05AoN1dSvtXibGPPmr7QqIvRThjzmkMjE1R9pbiIMPlaN6zE3Ey+vydj2V4xY9sz3+uAaO5KaoL3MEekcjVVA3+E4RyMaYL5/8HDtZkAtwL9AfRSrHsJukK9eDypFMVfWuo7ZMOJVj/6kcB/A3HGF6ZGCcg9ddHKOXZZ8sDcDA+dEZ2JN5TSO1uPyfVI6u+WGIxeWjLqkcu0/l2DNxrGk4Zm7uN84YlN7PMSoLWapzy4p1wU6xr7SwhiCX70qNTeFIx0gGhwMpHu+tf1OOrumGsfrpc8SHcIzUGnZjlNiTvd9naM7lIV0c5DcMUTjOoWHg98XeAr5i35QjzIqP+vbtalyiRuWGEkPRTNDu0UCiKXedCkfaPSpbwzARxvzB78nR5SfWy9XadfF673NjjVmaH/zBHEmh5nU2fkWeUO9pJMgo3E3lSIeZhv6j8Sc4cpdshwCz8IgL4OhasqlT3KoW4RhpWWcWwOPnhHSgaIhVBpntEcs/cOrAP2FXkz8KSTYY7OiocaWzqgiz+B+Ad/rlDBqwIAof6iPDVfjT0WqQyZEOkjb6s0lLf3uO3FdT5AgUJl5PXZA4mhmMOrNJtTqZNUbI7LwrzpGlfAjTfrogDxrk5OHouPqT5SDoe3JMbtdQWh7sz9XWiMFYmBQEK5PL5w6O15eKC26EGeY9B8cUvT/HZAioGdAg1ZcDKsokvXYqlmeVqiGNOiSfkWChSlODhNDjQxl6juaTIb/f73ty5CKwFy97SKPf0OBiet/v2D/HEfcZpF4Xv2HUgQ9Q6PvHg/lsvlRvyVGYWn+f0oKO5GjXMOYz5VrdwdGnofp4rhD+ZqsxLUeQM5H4LTk6SPh7yz8BaGZpXhgw14O8gyPtIZMIL513GFzoihSOv8mUfU+Oyjtebf5sAdSm3ajbOiYaa8Mid3CsUo5xIY7ED5B3lxqFYygHGVP0nhy1Xsfp9yBUNyfih4Tt+bHf3f1wdaX1F9yzvxzlGD8d9YXn/c6LwvE3b8F7cjSam8lwLU4o+HjBheSoIxKYiEEtdZb1Xo7JW3aGv0iRVDgO1Rweo96Uo7zKn1NQ4UlyC5KTiQZOFnzoZnh329U4UYEVNmcXp41b5V3a9aYc1Y3+OAXrmBhXtArXFyY5Sqof4b5xjuSloTWY8+uS+jiyWP9GPYajsQ+wxlHY4kjR4mYuk+5FtKDwltsy1RjWOzgOxHkHDS9Jo2ujVI4kFwvl+zjl23J04DplYnbbTSVBIhnQ2FxVVMN6B0fa5rk5X1Wch6RK5ci+QpFr3nI/Rxq1Nq0/ssjRQeBoTh9laXHJGKPtYUHxbGSjGtbiHHuEI+a3r6PPofkWmkaavEfykuXbqud+jiQSZrgXSzK0xZF4v/sdk7+Dtr9k5NhajQWtbhyDB3JktluYsNIGme/DvRqOzK2QmcPy9QiObIGuxsa1FizJ0B5Hmj66O2hbZZDTok3UDrIoR+YekvK/qesc5tlvR7cugCZN5wF5P0cKBisLkr/jJbg2OTKU6HhQ3yPio4bq0ghFv2uPh0XHYMyDLbsSlM6mMQ/saHq5QMz40HGc0lwHeNI0k7NQtvs5smCp6D+qbupsFaNduxoLQ+DuG2IvpOQVGqRGlNM4bgAEsN9rSLu0Tw6n66xVcQOyTXoQ6AsVWWuMXWmrVu26udl1TdCKfw+ms/kKesKY5AEch8x6xnkpk8aOuscw2AYN+BSOV5YVvrA0Hy0HR/VKqRzpRILsXgrrlWPvxx/Ohz/H+s0fiDSjywnL3IlO2vuNTmM+HBxDSJNLxIrUr2MN2JUxwMdhJzrbv+zXNDVFzKd8AMfq1Z6gke//LCouy3/BNC13+TyOtBa5SSV51Dwc1c2QMjle74Ywdl1+4SUCW63R3V/b6nWh5m0HC8cTH0TL8avdvfbg7Gw33v/C4Y96AMevjne7kXsrEgRjWqLAHkftqlWQnE8XsMc90HSmV635u/7xvAYJB+mBQGjyvZzrShoJcoG7EAbbxv06Dq7i/Y/ORsKc/REcv4ZiTB4D5F+7D4LAkj9ntdblSiXPRm6UzDsm/4Bev/bLVYNhZEcBbVa3YtOky3HahH3Zp/zppz7IDjqwO5APJ9sI/dOHqQ4huJ6M6A46sO9LBza96IFCw83X5MriujlaHcqBwRqQL5IQUxONOMaJX6odHS/vn0MuqrvbyAPA0zmGZuSUUOTojr+mfQ2DxK1Ml6wlI4m1tg1plWPeMW2d55dVf33dSqW+H2Z6XdrLy+60DvuV/chf1jTT3gmRaTo8afQqp/WpX1n1hkud8Z5OzZuQ1YjlEQZmU3ozzaGBvzvVnbCymIsvivpspit8Val0j9iKNBE4MseDr6Qvco4lNq+Nr6dziBfnKDz3r44uJVQ1a+PyPlGIixEd6BQ6CcMqESpjAy2/x2pVXE0noaBZsoFZ1C/XOYuzJ4Q5wypttoKhNum85GhdHAPeXzld9rpkiACcI9+VV9lonVu1PHEScJhktGpc5CVH+0oqWt6Ui+78KXXyzDshbsg1IB+Io6NFll1uWCNZcrSqpDHpJieSqre2BvndEKbnn9FocLgNxdoPz3ssla2kolF2MuAuHv94KftB6DORS45Wxde0YW1oLH53lbQdITTZACVHyxKqupIaYh+JyTjGOXpb6x0oOVqVUNc4ZXe3tuzokT9pddNBv+9jydGqpNqGrq9tk9WLurQRdjU96jks5x2vkFLfrrfrSCiryxXQrdlAoCJtJOs7xk1YS45WpcMDQX087DRns+D73BkuQvPafxLGHZ5ntdosWA7HTtpau5KjVRn40G3MgRCfNYh9Gx5cV9ebVXK0qtS6f6RKjlZVcvwbKjn+DZUc/4ZKjn9DJce/oZLj31DJ8W+o5Pg3dE3EtS+v5GhTo8qTlPsTZKUK6D80NwQ3c/qW2QAAAABJRU5ErkJggg==;" vertex="1" parent="sq1OUhgkUs9e2usffh2P-32">
          <mxGeometry x="7.735000000000014" y="4.5" width="104.53" height="25.5" as="geometry" />
        </mxCell>
        <mxCell id="sq1OUhgkUs9e2usffh2P-34" style="edgeStyle=orthogonalEdgeStyle;rounded=0;orthogonalLoop=1;jettySize=auto;html=1;entryX=0.5;entryY=1;entryDx=0;entryDy=0;dashed=1;" edge="1" parent="1" source="sq1OUhgkUs9e2usffh2P-13" target="sq1OUhgkUs9e2usffh2P-27">
          <mxGeometry relative="1" as="geometry" />
        </mxCell>
        <mxCell id="sq1OUhgkUs9e2usffh2P-35" style="edgeStyle=orthogonalEdgeStyle;rounded=0;orthogonalLoop=1;jettySize=auto;html=1;entryX=1;entryY=0.5;entryDx=0;entryDy=0;startArrow=classic;startFill=1;dashed=1;" edge="1" parent="1" source="sq1OUhgkUs9e2usffh2P-17" target="sq1OUhgkUs9e2usffh2P-10">
          <mxGeometry relative="1" as="geometry" />
        </mxCell>
        <mxCell id="sq1OUhgkUs9e2usffh2P-41" value="" style="group" vertex="1" connectable="0" parent="1">
          <mxGeometry x="380" y="200" width="66.08000000000001" height="66.90999999999997" as="geometry" />
        </mxCell>
        <mxCell id="sq1OUhgkUs9e2usffh2P-11" value="" style="image;html=1;image=img/lib/clip_art/computers/Database_128x128.png" vertex="1" parent="sq1OUhgkUs9e2usffh2P-41">
          <mxGeometry width="60" height="60" as="geometry" />
        </mxCell>
        <mxCell id="sq1OUhgkUs9e2usffh2P-40" value="" style="shape=image;verticalLabelPosition=bottom;labelBackgroundColor=default;verticalAlign=top;aspect=fixed;imageAspect=0;image=https://upload.wikimedia.org/wikipedia/commons/thumb/2/29/Postgresql_elephant.svg/1200px-Postgresql_elephant.svg.png;" vertex="1" parent="sq1OUhgkUs9e2usffh2P-41">
          <mxGeometry x="40.00000000000003" y="40" width="26.08" height="26.91" as="geometry" />
        </mxCell>
        <mxCell id="sq1OUhgkUs9e2usffh2P-44" value="Host machice" style="text;html=1;strokeColor=none;fillColor=none;align=center;verticalAlign=middle;whiteSpace=wrap;rounded=0;fontSize=17;" vertex="1" parent="1">
          <mxGeometry x="50" y="57" width="120" height="30" as="geometry" />
        </mxCell>
        <mxCell id="sq1OUhgkUs9e2usffh2P-46" value="" style="shape=image;html=1;verticalAlign=top;verticalLabelPosition=bottom;labelBackgroundColor=#ffffff;imageAspect=0;aspect=fixed;image=https://cdn1.iconfinder.com/data/icons/unicons-line-vol-3/24/docker-128.png" vertex="1" parent="1">
          <mxGeometry x="450" y="280" width="38" height="38" as="geometry" />
        </mxCell>
        <mxCell id="sq1OUhgkUs9e2usffh2P-47" value="" style="shape=image;html=1;verticalAlign=top;verticalLabelPosition=bottom;labelBackgroundColor=#ffffff;imageAspect=0;aspect=fixed;image=https://cdn1.iconfinder.com/data/icons/unicons-line-vol-3/24/docker-128.png" vertex="1" parent="1">
          <mxGeometry x="450" y="363.62" width="38" height="38" as="geometry" />
        </mxCell>
        <mxCell id="sq1OUhgkUs9e2usffh2P-48" value="" style="shape=image;html=1;verticalAlign=top;verticalLabelPosition=bottom;labelBackgroundColor=#ffffff;imageAspect=0;aspect=fixed;image=https://cdn1.iconfinder.com/data/icons/unicons-line-vol-3/24/docker-128.png" vertex="1" parent="1">
          <mxGeometry x="650" y="180" width="38" height="38" as="geometry" />
        </mxCell>
        <mxCell id="sq1OUhgkUs9e2usffh2P-49" value="" style="shape=image;html=1;verticalAlign=top;verticalLabelPosition=bottom;labelBackgroundColor=#ffffff;imageAspect=0;aspect=fixed;image=https://cdn1.iconfinder.com/data/icons/unicons-line-vol-3/24/docker-128.png" vertex="1" parent="1">
          <mxGeometry x="650" y="266.90999999999997" width="38" height="38" as="geometry" />
        </mxCell>
        <mxCell id="sq1OUhgkUs9e2usffh2P-50" value="" style="shape=image;html=1;verticalAlign=top;verticalLabelPosition=bottom;labelBackgroundColor=#ffffff;imageAspect=0;aspect=fixed;image=https://cdn1.iconfinder.com/data/icons/unicons-line-vol-3/24/docker-128.png" vertex="1" parent="1">
          <mxGeometry x="650" y="344.62" width="38" height="38" as="geometry" />
        </mxCell>
        <mxCell id="sq1OUhgkUs9e2usffh2P-51" value="" style="shape=image;html=1;verticalAlign=top;verticalLabelPosition=bottom;labelBackgroundColor=#ffffff;imageAspect=0;aspect=fixed;image=https://cdn1.iconfinder.com/data/icons/unicons-line-vol-3/24/docker-128.png" vertex="1" parent="1">
          <mxGeometry x="450" y="180" width="38" height="38" as="geometry" />
        </mxCell>
        <mxCell id="sq1OUhgkUs9e2usffh2P-52" value="docker-compose.yml" style="text;html=1;strokeColor=none;fillColor=none;align=center;verticalAlign=middle;whiteSpace=wrap;rounded=0;fontSize=17;" vertex="1" parent="1">
          <mxGeometry x="290" y="130" width="180" height="30" as="geometry" />
        </mxCell>
        <mxCell id="sq1OUhgkUs9e2usffh2P-53" value="4444" style="rounded=0;whiteSpace=wrap;html=1;" vertex="1" parent="1">
          <mxGeometry x="240" y="308.90999999999997" width="50" height="20.34" as="geometry" />
        </mxCell>
        <mxCell id="sq1OUhgkUs9e2usffh2P-56" style="edgeStyle=orthogonalEdgeStyle;rounded=0;orthogonalLoop=1;jettySize=auto;html=1;startArrow=classic;startFill=1;" edge="1" parent="1" source="sq1OUhgkUs9e2usffh2P-54" target="sq1OUhgkUs9e2usffh2P-27">
          <mxGeometry relative="1" as="geometry" />
        </mxCell>
        <mxCell id="sq1OUhgkUs9e2usffh2P-54" value="8080" style="rounded=0;whiteSpace=wrap;html=1;" vertex="1" parent="1">
          <mxGeometry x="240" y="399.8299999999999" width="50" height="20.34" as="geometry" />
        </mxCell>
        <mxCell id="sq1OUhgkUs9e2usffh2P-58" style="edgeStyle=orthogonalEdgeStyle;rounded=0;orthogonalLoop=1;jettySize=auto;html=1;startArrow=classic;startFill=1;" edge="1" parent="1" source="sq1OUhgkUs9e2usffh2P-55" target="sq1OUhgkUs9e2usffh2P-11">
          <mxGeometry relative="1" as="geometry" />
        </mxCell>
        <mxCell id="sq1OUhgkUs9e2usffh2P-55" value="5432" style="rounded=0;whiteSpace=wrap;html=1;" vertex="1" parent="1">
          <mxGeometry x="240" y="220.28999999999996" width="50" height="20.34" as="geometry" />
        </mxCell>
        <mxCell id="sq1OUhgkUs9e2usffh2P-57" style="edgeStyle=orthogonalEdgeStyle;rounded=0;orthogonalLoop=1;jettySize=auto;html=1;entryX=-0.029;entryY=0.454;entryDx=0;entryDy=0;entryPerimeter=0;startArrow=classic;startFill=1;" edge="1" parent="1" source="sq1OUhgkUs9e2usffh2P-53" target="sq1OUhgkUs9e2usffh2P-31">
          <mxGeometry relative="1" as="geometry" />
        </mxCell>
      </root>
    </mxGraphModel>
  </diagram>
</mxfile>
